<?xml version="1.0" encoding="UTF-8" standalone="no"?>
<!DOCTYPE svg PUBLIC "-//W3C//DTD SVG 1.1//EN" "http://www.w3.org/Graphics/SVG/1.1/DTD/svg11.dtd">
<svg width="100%" height="100%" viewBox="0 0 800 600" version="1.1" xmlns="http://www.w3.org/2000/svg" xmlns:xlink="http://www.w3.org/1999/xlink" xml:space="preserve" xmlns:serif="http://www.serif.com/" style="fill-rule:evenodd;clip-rule:evenodd;stroke-linecap:round;stroke-linejoin:round;">
    <g transform="matrix(20.2359,0,0,20.2359,138.059,31.9989)">
        <rect x="0" y="0" width="24" height="24" style="fill:none;fill-rule:nonzero;"/>
    </g>
    <g transform="matrix(1.29178,0,0,1.29178,-100.785,-55.5328)">
        <g transform="matrix(20.2359,0,0,20.2359,152.393,32.7923)">
            <path d="M9.828,9.172C9.078,8.422 8.06,8 6.999,8C4.805,8 2.999,9.806 2.999,12C2.999,14.194 4.805,16 6.999,16C8.06,16 9.078,15.578 9.828,14.828C10.716,14.023 11.451,13.065 12,12C12.549,10.935 13.284,9.977 14.172,9.172C14.922,8.422 15.94,8 17.001,8C19.195,8 21.001,9.806 21.001,12C21.001,14.194 19.195,16 17.001,16C15.94,16 14.922,15.578 14.172,14.828C13.284,14.023 12.549,13.065 12,12C11.451,10.935 10.716,9.977 9.828,9.172" style="fill:none;fill-rule:nonzero;stroke:black;stroke-width:2px;"/>
        </g>
        <g transform="matrix(20.2359,0,0,20.2359,136.511,31.9989)">
            <path d="M7.024,8L6.999,8C4.805,8 2.999,9.806 2.999,12C2.999,14.194 4.805,16 6.999,16C8.06,16 9.078,15.578 9.828,14.828C10.716,14.023 11.451,13.065 12,12L11.974,11.95C11.428,10.905 10.702,9.964 9.828,9.172C9.084,8.428 8.076,8.007 7.024,8ZM17.027,8L17.001,8C15.94,8 14.922,8.422 14.172,9.172C13.298,9.964 12.572,10.905 12.026,11.95L12,12C12.549,13.065 13.284,14.023 14.172,14.828C14.922,15.578 15.94,16 17.001,16C19.195,16 21.001,14.194 21.001,12C21.001,9.814 19.209,8.014 17.027,8Z" style="fill:none;fill-rule:nonzero;stroke:black;stroke-width:2px;"/>
        </g>
        <g transform="matrix(20.2359,0,0,20.2359,138.059,31.9989)">
            <path d="M7.024,8L6.999,8C4.805,8 2.999,9.806 2.999,12C2.999,14.194 4.805,16 6.999,16C8.06,16 9.078,15.578 9.828,14.828C10.716,14.023 11.451,13.065 12,12L11.974,11.95C11.428,10.905 10.702,9.964 9.828,9.172C9.084,8.428 8.076,8.007 7.024,8ZM17.027,8L17.001,8C15.94,8 14.922,8.422 14.172,9.172C13.298,9.964 12.572,10.905 12.026,11.95L12,12C12.549,13.065 13.284,14.023 14.172,14.828C14.922,15.578 15.94,16 17.001,16C19.195,16 21.001,14.194 21.001,12C21.001,9.814 19.209,8.014 17.027,8Z" style="fill:none;fill-rule:nonzero;stroke:white;stroke-width:1.84px;"/>
        </g>
    </g>
</svg>
